<svg viewBox="0 0 500 300" xmlns="http://www.w3.org/2000/svg">
  <rect width="500" height="300" fill="#1a1628"/>
  <rect x="28" y="18" width="444" height="264" rx="12" fill="#ffffff"/>

  <g stroke="#3B4EA8" stroke-width="1.2" opacity="0.75">
    <line x1="58" y1="48" x2="118" y2="44"/>
    <line x1="118" y1="44" x2="182" y2="50"/>
    <line x1="182" y1="50" x2="242" y2="46"/>
    <line x1="242" y1="46" x2="308" y2="50"/>
    <line x1="308" y1="50" x2="368" y2="46"/>
    <line x1="368" y1="46" x2="438" y2="50"/>
    <line x1="54" y1="98" x2="116" y2="94"/>
    <line x1="116" y1="94" x2="178" y2="100"/>
    <line x1="178" y1="100" x2="240" y2="96"/>
    <line x1="240" y1="96" x2="306" y2="100"/>
    <line x1="306" y1="100" x2="372" y2="94"/>
    <line x1="372" y1="94" x2="440" y2="98"/>
    <line x1="60" y1="144" x2="120" y2="140"/>
    <line x1="242" y1="140" x2="308" y2="144"/>
    <line x1="308" y1="144" x2="370" y2="140"/>
    <line x1="370" y1="140" x2="440" y2="146"/>
    <line x1="55" y1="194" x2="118" y2="190"/>
    <line x1="118" y1="190" x2="180" y2="196"/>
    <line x1="180" y1="196" x2="242" y2="190"/>
    <line x1="242" y1="190" x2="306" y2="194"/>
    <line x1="58" y1="240" x2="120" y2="236"/>
    <line x1="120" y1="236" x2="182" y2="242"/>
    <line x1="182" y1="242" x2="240" y2="236"/>
    <line x1="240" y1="236" x2="305" y2="240"/>
    <line x1="305" y1="240" x2="368" y2="236"/>
    <line x1="368" y1="236" x2="440" y2="242"/>
    <line x1="62" y1="266" x2="122" y2="262"/>
    <line x1="122" y1="262" x2="180" y2="268"/>
    <line x1="180" y1="268" x2="244" y2="264"/>
    <line x1="244" y1="264" x2="308" y2="268"/>
    <line x1="308" y1="268" x2="372" y2="262"/>
    <line x1="372" y1="262" x2="442" y2="266"/>
  </g>

  <g stroke="#1D9E75" stroke-width="1.2" opacity="0.75">
    <line x1="58" y1="48" x2="54" y2="98"/>
    <line x1="54" y1="98" x2="60" y2="144"/>
    <line x1="60" y1="144" x2="55" y2="194"/>
    <line x1="55" y1="194" x2="58" y2="240"/>
    <line x1="58" y1="240" x2="62" y2="266"/>
    <line x1="118" y1="44" x2="116" y2="94"/>
    <line x1="116" y1="94" x2="120" y2="140"/>
    <line x1="120" y1="140" x2="118" y2="190"/>
    <line x1="118" y1="190" x2="120" y2="236"/>
    <line x1="120" y1="236" x2="122" y2="262"/>
    <line x1="182" y1="50" x2="178" y2="100"/>
    <line x1="242" y1="46" x2="240" y2="96"/>
    <line x1="240" y1="96" x2="242" y2="140"/>
    <line x1="242" y1="140" x2="242" y2="190"/>
    <line x1="242" y1="190" x2="240" y2="236"/>
    <line x1="240" y1="236" x2="244" y2="264"/>
    <line x1="308" y1="50" x2="306" y2="100"/>
    <line x1="306" y1="100" x2="308" y2="144"/>
    <line x1="308" y1="144" x2="306" y2="194"/>
    <line x1="306" y1="194" x2="305" y2="240"/>
    <line x1="305" y1="240" x2="308" y2="268"/>
    <line x1="368" y1="46" x2="372" y2="94"/>
    <line x1="372" y1="94" x2="370" y2="140"/>
    <line x1="370" y1="140" x2="370" y2="190"/>
    <line x1="370" y1="190" x2="368" y2="236"/>
    <line x1="368" y1="236" x2="372" y2="262"/>
    <line x1="438" y1="50" x2="440" y2="98"/>
    <line x1="440" y1="98" x2="440" y2="146"/>
    <line x1="440" y1="146" x2="438" y2="196"/>
    <line x1="438" y1="196" x2="440" y2="242"/>
    <line x1="440" y1="242" x2="442" y2="266"/>
  </g>

  <g stroke="#3B4EA8" stroke-width="1.0" opacity="0.5">
    <line x1="58" y1="48" x2="116" y2="94"/>
    <line x1="118" y1="44" x2="178" y2="100"/>
    <line x1="182" y1="50" x2="240" y2="96"/>
    <line x1="242" y1="46" x2="306" y2="100"/>
    <line x1="308" y1="50" x2="372" y2="94"/>
    <line x1="368" y1="46" x2="440" y2="98"/>
    <line x1="54" y1="98" x2="120" y2="140"/>
    <line x1="116" y1="94" x2="182" y2="146"/>
    <line x1="240" y1="96" x2="308" y2="144"/>
    <line x1="306" y1="100" x2="370" y2="140"/>
    <line x1="372" y1="94" x2="440" y2="146"/>
    <line x1="60" y1="144" x2="118" y2="190"/>
    <line x1="120" y1="140" x2="180" y2="196"/>
    <line x1="242" y1="140" x2="306" y2="194"/>
    <line x1="308" y1="144" x2="370" y2="190"/>
    <line x1="370" y1="140" x2="438" y2="196"/>
    <line x1="55" y1="194" x2="120" y2="236"/>
    <line x1="118" y1="190" x2="182" y2="242"/>
    <line x1="242" y1="190" x2="305" y2="240"/>
    <line x1="306" y1="194" x2="368" y2="236"/>
    <line x1="370" y1="190" x2="440" y2="242"/>
    <line x1="58" y1="240" x2="122" y2="262"/>
    <line x1="120" y1="236" x2="180" y2="268"/>
    <line x1="240" y1="236" x2="308" y2="268"/>
    <line x1="305" y1="240" x2="372" y2="262"/>
    <line x1="368" y1="236" x2="442" y2="266"/>
  </g>

  <g fill="#1a1628">
    <circle cx="58" cy="48" r="3.5"/>
    <circle cx="118" cy="44" r="3.5"/>
    <circle cx="182" cy="50" r="3.5"/>
    <circle cx="242" cy="46" r="3.5"/>
    <circle cx="308" cy="50" r="3.5"/>
    <circle cx="368" cy="46" r="3.5"/>
    <circle cx="438" cy="50" r="3.5"/>
    <circle cx="54" cy="98" r="3.5"/>
    <circle cx="116" cy="94" r="3.5"/>
    <circle cx="178" cy="100" r="3.5"/>
    <circle cx="240" cy="96" r="3.5"/>
    <circle cx="306" cy="100" r="3.5"/>
    <circle cx="372" cy="94" r="3.5"/>
    <circle cx="440" cy="98" r="3.5"/>
    <circle cx="60" cy="144" r="3.5"/>
    <circle cx="120" cy="140" r="3.5"/>
    <circle cx="182" cy="146" r="3.5"/>
    <circle cx="242" cy="140" r="3.5"/>
    <circle cx="308" cy="144" r="3.5"/>
    <circle cx="370" cy="140" r="3.5"/>
    <circle cx="440" cy="146" r="3.5"/>
    <circle cx="55" cy="194" r="3.5"/>
    <circle cx="118" cy="190" r="3.5"/>
    <circle cx="180" cy="196" r="3.5"/>
    <circle cx="242" cy="190" r="3.5"/>
    <circle cx="306" cy="194" r="3.5"/>
    <circle cx="370" cy="190" r="3.5"/>
    <circle cx="438" cy="196" r="3.5"/>
    <circle cx="58" cy="240" r="3.5"/>
    <circle cx="120" cy="236" r="3.5"/>
    <circle cx="182" cy="242" r="3.5"/>
    <circle cx="240" cy="236" r="3.5"/>
    <circle cx="305" cy="240" r="3.5"/>
    <circle cx="368" cy="236" r="3.5"/>
    <circle cx="440" cy="242" r="3.5"/>
    <circle cx="62" cy="266" r="3.5"/>
    <circle cx="122" cy="262" r="3.5"/>
    <circle cx="180" cy="268" r="3.5"/>
    <circle cx="244" cy="264" r="3.5"/>
    <circle cx="308" cy="268" r="3.5"/>
    <circle cx="372" cy="262" r="3.5"/>
    <circle cx="442" cy="266" r="3.5"/>
  </g>

  <circle cx="168" cy="118" r="54" fill="#ffffff"/>
  <circle cx="346" cy="182" r="48" fill="#ffffff"/>

  <circle cx="168" cy="118" r="54" fill="none" stroke="#5d58ac" stroke-width="1.8" stroke-dasharray="6 3" opacity="0.8"/>
  <circle cx="346" cy="182" r="48" fill="none" stroke="#5d58ac" stroke-width="1.8" stroke-dasharray="6 3" opacity="0.8"/>

  <circle cx="168" cy="118" r="3" fill="#5d58ac" opacity="0.5"/>
  <circle cx="346" cy="182" r="3" fill="#5d58ac" opacity="0.5"/>

  <rect x="28" y="18" width="444" height="264" rx="12" fill="none" stroke="#e0e0e8" stroke-width="0.5"/>
</svg>
